<mxfile host="app.diagrams.net" agent="Mozilla/5.0 (Windows NT 10.0; Win64; x64) AppleWebKit/537.36 (KHTML, like Gecko) Chrome/133.0.0.0 Safari/537.36" version="26.0.16">
  <diagram name="Page-1" id="v6gSke1N16z-7IEEeFjL">
    <mxGraphModel dx="1909" dy="2049" grid="1" gridSize="10" guides="1" tooltips="1" connect="1" arrows="1" fold="1" page="1" pageScale="1" pageWidth="850" pageHeight="1100" background="none" math="0" shadow="0">
      <root>
        <mxCell id="0" />
        <mxCell id="1" parent="0" />
        <mxCell id="WIWHlze2y9q67sxsoC8P-1" value="Mobile Device" style="sketch=0;verticalLabelPosition=bottom;sketch=0;aspect=fixed;html=1;verticalAlign=top;strokeColor=none;fillColor=#000000;align=center;outlineConnect=0;pointerEvents=1;shape=mxgraph.citrix2.mobile;" vertex="1" parent="1">
          <mxGeometry x="219.69" y="240" width="60.61" height="120" as="geometry" />
        </mxCell>
        <mxCell id="WIWHlze2y9q67sxsoC8P-2" value="STUDDY - Mobile Study Planner" style="text;html=1;align=center;verticalAlign=middle;whiteSpace=wrap;rounded=0;shadow=0;comic=0;sketch=0;fontFamily=Helvetica;fontSize=25;fontStyle=1" vertex="1" parent="1">
          <mxGeometry x="200" y="-30" width="900" height="40" as="geometry" />
        </mxCell>
        <mxCell id="WIWHlze2y9q67sxsoC8P-5" style="edgeStyle=orthogonalEdgeStyle;rounded=0;orthogonalLoop=1;jettySize=auto;html=1;" edge="1" parent="1">
          <mxGeometry relative="1" as="geometry">
            <mxPoint x="80" y="300" as="sourcePoint" />
            <mxPoint x="170" y="300" as="targetPoint" />
          </mxGeometry>
        </mxCell>
        <mxCell id="WIWHlze2y9q67sxsoC8P-3" value="Actor" style="shape=umlActor;verticalLabelPosition=bottom;verticalAlign=top;html=1;outlineConnect=0;" vertex="1" parent="1">
          <mxGeometry x="10" y="240" width="60" height="120" as="geometry" />
        </mxCell>
        <mxCell id="WIWHlze2y9q67sxsoC8P-6" value="&lt;h2&gt;Presentation Layer&lt;/h2&gt;&lt;div&gt;&lt;ul&gt;&lt;li&gt;View Task&lt;/li&gt;&lt;li&gt;View Calendar&lt;/li&gt;&lt;li&gt;Task Notification&lt;/li&gt;&lt;li&gt;Progress Tracker&lt;/li&gt;&lt;/ul&gt;&lt;/div&gt;" style="rounded=1;whiteSpace=wrap;html=1;align=left;verticalAlign=top;fillColor=#f5f5f5;strokeColor=#666666;spacingLeft=15;fontColor=#333333;" vertex="1" parent="1">
          <mxGeometry x="400" y="100" width="240" height="130" as="geometry" />
        </mxCell>
        <mxCell id="WIWHlze2y9q67sxsoC8P-7" value="&lt;h2&gt;Business Logic Layer&lt;/h2&gt;&lt;div&gt;&lt;ul&gt;&lt;li&gt;Task management&lt;/li&gt;&lt;li&gt;&lt;span style=&quot;background-color: transparent; color: light-dark(rgb(0, 0, 0), rgb(255, 255, 255));&quot;&gt;Schedule Reminder&lt;/span&gt;&lt;/li&gt;&lt;li&gt;Progress Percentage&lt;/li&gt;&lt;li&gt;App Customization&lt;/li&gt;&lt;/ul&gt;&lt;/div&gt;" style="rounded=1;whiteSpace=wrap;html=1;align=left;verticalAlign=top;fillColor=#f5f5f5;strokeColor=#666666;spacingLeft=15;fontColor=#333333;" vertex="1" parent="1">
          <mxGeometry x="400" y="240" width="240" height="130" as="geometry" />
        </mxCell>
        <mxCell id="WIWHlze2y9q67sxsoC8P-8" value="&lt;h2&gt;Data Layer&lt;/h2&gt;&lt;div&gt;&lt;ul&gt;&lt;li&gt;&lt;span style=&quot;background-color: transparent; color: light-dark(rgb(0, 0, 0), rgb(255, 255, 255));&quot;&gt;Add Task&lt;/span&gt;&lt;/li&gt;&lt;li&gt;&lt;span style=&quot;background-color: transparent; color: light-dark(rgb(0, 0, 0), rgb(255, 255, 255));&quot;&gt;Edit Task&lt;/span&gt;&lt;/li&gt;&lt;li&gt;&lt;span style=&quot;background-color: transparent; color: light-dark(rgb(0, 0, 0), rgb(255, 255, 255));&quot;&gt;Delete Task&lt;/span&gt;&lt;/li&gt;&lt;/ul&gt;&lt;/div&gt;" style="rounded=1;whiteSpace=wrap;html=1;align=left;verticalAlign=top;fillColor=#f5f5f5;strokeColor=#666666;spacingLeft=15;fontColor=#333333;" vertex="1" parent="1">
          <mxGeometry x="400" y="380" width="240" height="130" as="geometry" />
        </mxCell>
        <mxCell id="WIWHlze2y9q67sxsoC8P-12" style="edgeStyle=orthogonalEdgeStyle;orthogonalLoop=1;jettySize=auto;html=1;fontFamily=Titillium Web;fontSize=18;fontColor=#FFFFFF;rounded=1;strokeWidth=2;endArrow=none;elbow=vertical;shadow=0;dashed=1;arcSize=10;comic=0;sketch=0;" edge="1" parent="1">
          <mxGeometry relative="1" as="geometry">
            <mxPoint x="360" y="130" as="targetPoint" />
            <mxPoint x="360" y="130" as="sourcePoint" />
            <Array as="points">
              <mxPoint x="360" y="540" />
              <mxPoint x="680" y="540" />
              <mxPoint x="680" y="40" />
              <mxPoint x="360" y="40" />
            </Array>
          </mxGeometry>
        </mxCell>
        <mxCell id="WIWHlze2y9q67sxsoC8P-13" value="&lt;h1&gt;Application&lt;/h1&gt;" style="text;html=1;align=center;verticalAlign=middle;resizable=0;points=[];autosize=1;strokeColor=none;fillColor=none;" vertex="1" parent="1">
          <mxGeometry x="370" y="30" width="150" height="70" as="geometry" />
        </mxCell>
        <mxCell id="WIWHlze2y9q67sxsoC8P-14" value="Local Database" style="shape=cylinder3;whiteSpace=wrap;html=1;boundedLbl=1;backgroundOutline=1;size=15;fillColor=#f5f5f5;strokeColor=#666666;fontColor=#333333;" vertex="1" parent="1">
          <mxGeometry x="860" y="150" width="97.5" height="130" as="geometry" />
        </mxCell>
        <mxCell id="WIWHlze2y9q67sxsoC8P-15" style="edgeStyle=orthogonalEdgeStyle;orthogonalLoop=1;jettySize=auto;html=1;fontFamily=Titillium Web;fontSize=18;fontColor=#FFFFFF;rounded=1;strokeWidth=2;endArrow=none;elbow=vertical;shadow=0;dashed=1;arcSize=10;comic=0;sketch=0;" edge="1" parent="1">
          <mxGeometry relative="1" as="geometry">
            <mxPoint x="760" y="130" as="targetPoint" />
            <mxPoint x="760" y="130" as="sourcePoint" />
            <Array as="points">
              <mxPoint x="760" y="540" />
              <mxPoint x="1080" y="540" />
              <mxPoint x="1080" y="40" />
              <mxPoint x="760" y="40" />
            </Array>
          </mxGeometry>
        </mxCell>
        <mxCell id="WIWHlze2y9q67sxsoC8P-16" value="&lt;h1&gt;Storage&lt;/h1&gt;" style="text;html=1;align=center;verticalAlign=middle;resizable=0;points=[];autosize=1;strokeColor=none;fillColor=none;" vertex="1" parent="1">
          <mxGeometry x="770" y="30" width="110" height="70" as="geometry" />
        </mxCell>
        <mxCell id="WIWHlze2y9q67sxsoC8P-18" value="" style="endArrow=classic;html=1;rounded=0;" edge="1" parent="1">
          <mxGeometry width="50" height="50" relative="1" as="geometry">
            <mxPoint x="690" y="290" as="sourcePoint" />
            <mxPoint x="750" y="290" as="targetPoint" />
            <Array as="points">
              <mxPoint x="720" y="290" />
              <mxPoint x="730" y="290" />
            </Array>
          </mxGeometry>
        </mxCell>
        <mxCell id="WIWHlze2y9q67sxsoC8P-20" value="" style="endArrow=classic;html=1;rounded=0;" edge="1" parent="1">
          <mxGeometry width="50" height="50" relative="1" as="geometry">
            <mxPoint x="750" y="310" as="sourcePoint" />
            <mxPoint x="690" y="310" as="targetPoint" />
          </mxGeometry>
        </mxCell>
        <mxCell id="WIWHlze2y9q67sxsoC8P-21" value="" style="endArrow=classic;html=1;rounded=0;" edge="1" parent="1">
          <mxGeometry width="50" height="50" relative="1" as="geometry">
            <mxPoint x="290" y="294.57" as="sourcePoint" />
            <mxPoint x="350" y="294.57" as="targetPoint" />
            <Array as="points">
              <mxPoint x="320" y="294.57" />
              <mxPoint x="330" y="294.57" />
            </Array>
          </mxGeometry>
        </mxCell>
        <mxCell id="WIWHlze2y9q67sxsoC8P-22" value="" style="endArrow=classic;html=1;rounded=0;" edge="1" parent="1">
          <mxGeometry width="50" height="50" relative="1" as="geometry">
            <mxPoint x="350" y="314.57" as="sourcePoint" />
            <mxPoint x="290" y="314.57" as="targetPoint" />
          </mxGeometry>
        </mxCell>
        <mxCell id="WIWHlze2y9q67sxsoC8P-23" value="&lt;h2&gt;Local Database&lt;/h2&gt;&lt;div&gt;&lt;ul&gt;&lt;li&gt;Encryption&lt;/li&gt;&lt;li&gt;Data Access&lt;/li&gt;&lt;/ul&gt;&lt;/div&gt;" style="rounded=1;whiteSpace=wrap;html=1;align=left;verticalAlign=top;fillColor=#f5f5f5;strokeColor=#666666;spacingLeft=15;fontColor=#333333;" vertex="1" parent="1">
          <mxGeometry x="788.75" y="310" width="240" height="130" as="geometry" />
        </mxCell>
        <mxCell id="WIWHlze2y9q67sxsoC8P-24" style="edgeStyle=orthogonalEdgeStyle;orthogonalLoop=1;jettySize=auto;html=1;fontFamily=Titillium Web;fontSize=18;fontColor=#FFFFFF;rounded=1;strokeColor=#212F37;strokeWidth=2;endArrow=none;elbow=vertical;shadow=0;dashed=1;arcSize=10;comic=0;sketch=0;" edge="1" parent="1">
          <mxGeometry relative="1" as="geometry">
            <mxPoint x="200" y="40" as="targetPoint" />
            <mxPoint x="200" y="40" as="sourcePoint" />
            <Array as="points">
              <mxPoint x="200" y="570" />
              <mxPoint x="1100" y="570" />
              <mxPoint x="1100" y="20" />
              <mxPoint x="200" y="20" />
            </Array>
          </mxGeometry>
        </mxCell>
      </root>
    </mxGraphModel>
  </diagram>
</mxfile>
